<?xml version="1.0" standalone="no"?>
<!DOCTYPE svg PUBLIC "-//W3C//DTD SVG 20010904//EN"
 "http://www.w3.org/TR/2001/REC-SVG-20010904/DTD/svg10.dtd">
<svg version="1.0" xmlns="http://www.w3.org/2000/svg"
 width="150.000000pt" height="150.000000pt" viewBox="0 0 150.000000 150.000000"
 preserveAspectRatio="xMidYMid meet">
<metadata>
Created by potrace 1.14, written by Peter Selinger 2001-2017
</metadata>
<g transform="translate(0.000000,150.000000) scale(0.100000,-0.100000)"
fill="#000000" stroke="none">
<path d="M110 1406 c0 -9 15 -22 33 -29 17 -8 41 -24 52 -37 19 -21 20 -38 23
-564 3 -617 4 -608 -65 -641 -24 -11 -43 -26 -43 -33 0 -21 629 -11 724 11
233 56 413 223 472 442 9 33 18 110 21 170 12 282 -109 508 -328 613 -137 66
-189 73 -561 79 -296 5 -328 4 -328 -11z m690 -78 c146 -73 200 -230 200 -578
0 -274 -32 -416 -115 -508 -65 -72 -124 -95 -257 -100 l-108 -4 0 617 0 618
108 -6 c94 -6 115 -11 172 -39z"/>
</g>
</svg>
